<mxfile host="app.diagrams.net" modified="2024-02-09T15:01:35.834Z" agent="Mozilla/5.0 (Macintosh; Intel Mac OS X 10_15_7) AppleWebKit/537.36 (KHTML, like Gecko) Chrome/120.0.0.0 Safari/537.36" etag="9oMd6fbaEO5Zi_iVJPZL" version="23.1.2" type="device">
  <diagram name="第 1 页" id="_1i21SUvx77jp9cxokIm">
    <mxGraphModel dx="1590" dy="1462" grid="1" gridSize="10" guides="1" tooltips="1" connect="1" arrows="1" fold="1" page="1" pageScale="1" pageWidth="900" pageHeight="1600" math="0" shadow="0">
      <root>
        <mxCell id="0" />
        <mxCell id="1" parent="0" />
      </root>
    </mxGraphModel>
  </diagram>
</mxfile>
